<?xml version="1.0" encoding="UTF-8"?>
<svg version="1.1" xmlns="http://www.w3.org/2000/svg" width="2974" height="2018">
<path d="M0 0 C808.5 0 1617 0 2450 0 C2450 57.98851018 2450 57.98851018 2448.75 75 C2448.6123883 77.02486386 2448.47536378 79.0497677 2448.33886719 81.07470703 C2447.92652741 87.0525738 2447.47101935 93.02650183 2447 99 C2446.92974609 99.90262573 2446.85949219 100.80525146 2446.78710938 101.73522949 C2439.19446974 198.59903927 2418.84680113 293.98031466 2363 455 C2362.7316333 455.66330322 2362.4632666 456.32660645 2362.18676758 457.01000977 C2347.10334114 494.25252783 2330.41321111 531.20965149 2311.31005859 566.57128906 C2309.86036483 569.25886893 2308.42441687 571.95358989 2306.98828125 574.6484375 C2299.32782516 588.96807462 2291.28348643 603.03282266 2283 617 C2282.09894531 618.52560547 2282.09894531 618.52560547 2281.1796875 620.08203125 C2267.27295924 643.60511415 2252.56545982 666.54120533 2237 689 C2236.40977051 689.85432617 2235.81954102 690.70865234 2235.21142578 691.58886719 C2224.01133322 707.78497345 2212.45591802 723.71408422 2200.35742188 739.25244141 C2198.82109684 741.23032172 2197.29335127 743.21468985 2195.765625 745.19921875 C2184.67561918 759.57393855 2173.15528434 773.57547928 2161.37402344 787.38769531 C2159.92609978 789.08671589 2158.48259688 790.7894368 2157.0390625 792.4921875 C2151.30415377 799.23908463 2145.45072993 805.84792609 2139.4375 812.34765625 C2137.48256122 814.47490534 2135.57117955 816.62272252 2133.6875 818.8125 C2125.64380523 828.07435047 2117.17732088 837.0120121 2108.37890625 845.55859375 C2106.41549706 847.57358676 2104.57768739 849.62117568 2102.7421875 851.75 C2098.86815179 856.21323475 2094.75145609 860.39616654 2090.5625 864.5625 C2089.85029297 865.27857422 2089.13808594 865.99464844 2088.40429688 866.73242188 C2084.35114304 870.77821304 2080.19228577 874.62459603 2075.85522461 878.36303711 C2073.10882555 880.7863304 2070.55567854 883.37879124 2068 886 C2064.18261025 889.86444449 2060.31965147 893.58001638 2056.1796875 897.1015625 C2053.86227065 899.11995782 2051.6177744 901.20362983 2049.37231445 903.30126953 C2043.96574565 908.35136988 2038.45181546 913.15462933 2032.6796875 917.7890625 C2029.86746685 920.1093495 2027.18202737 922.53071134 2024.5 925 C2019.68809567 929.41881919 2014.71730367 933.57233762 2009.6328125 937.671875 C2007.78569216 939.17431738 2005.95472155 940.69516863 2004.125 942.21875 C1994.95839924 949.84331578 1985.63309279 957.20375495 1976.12060547 964.39111328 C1974.00084425 965.99935947 1971.89149195 967.62031319 1969.78515625 969.24609375 C1959.67380499 977.045309 1949.40853425 984.60234274 1939 992 C1938.22317871 992.55268555 1937.44635742 993.10537109 1936.64599609 993.67480469 C1891.0989752 1026.00451479 1843.38627619 1054.9402708 1794 1081 C1791.97656046 1082.07421491 1789.95312287 1083.14843349 1787.9296875 1084.22265625 C1733.50848132 1112.99450466 1676.1928568 1136.09916755 1618 1156 C1617.28023987 1156.24621094 1616.56047974 1156.49242187 1615.81890869 1156.74609375 C1525.02535905 1187.71609469 1429.59351135 1207.25955292 1307.66796875 1217.23828125 C1306.79774582 1217.30153595 1305.92752289 1217.36479065 1305.03092957 1217.42996216 C1287.63345501 1218.63379704 1270.26845579 1219.16660371 1252.83203125 1219.203125 C1250.75545735 1219.21010288 1248.67888367 1219.21714386 1246.60231018 1219.22424316 C1240.00570408 1219.2435169 1233.40913119 1219.24841834 1226.8125 1219.25 C1225.69057503 1219.25058914 1224.56865005 1219.25117828 1223.41272736 1219.25178528 C1191.37607095 1219.26366935 1159.4849479 1219.12383985 1127.55511475 1216.22784424 C1124.92906985 1215.99367503 1122.30210609 1215.77566434 1119.67431641 1215.56201172 C1076.78119017 1212.06091986 1034.2933846 1205.89980562 992 1198 C991.1759668 1197.84700439 990.35193359 1197.69400879 989.50292969 1197.53637695 C894.4755689 1179.84634232 801.65092435 1149.44592024 696.88769531 1101.36816406 C694.17818426 1100.0844221 691.46198872 1098.81645095 688.7421875 1097.5546875 C678.65231775 1092.85917227 668.78071151 1087.82918551 658.96875 1082.58007812 C656.15448781 1081.0822241 653.3338595 1079.59730815 650.51063538 1078.11645508 C633.42161733 1069.15203528 616.54747303 1059.93998419 600 1050 C598.84327622 1049.30677919 597.68653738 1048.6135835 596.52978516 1047.92041016 C582.53000496 1039.52229315 568.61158619 1031.01771521 555 1022 C553.8255835 1021.2265625 553.8255835 1021.2265625 552.62744141 1020.4375 C532.01167688 1006.85647975 511.77599132 992.77782258 492 978 C490.871193 977.16002286 489.74229578 976.32016693 488.61328125 975.48046875 C485.73376997 973.33118647 482.86398121 971.16992449 480 969 C478.99195313 968.236875 477.98390625 967.47375 476.9453125 966.6875 C468.76446007 960.46113034 460.77913971 954.00481033 452.82470703 947.49267578 C451.21776304 946.17813798 449.60720809 944.86801698 447.99609375 943.55859375 C442.55303732 939.12967302 437.17631487 934.62928266 431.83300781 930.08105469 C428.45111286 927.20774548 425.02509525 924.40117769 421.5625 921.625 C415.86934143 916.99722783 410.54957238 912.00608975 405.203125 906.98828125 C402.86386908 904.79539746 400.49547641 902.65168627 398.0625 900.5625 C388.82831166 892.57939524 379.94540702 884.13348531 371.44140625 875.37890625 C369.41637501 873.40571581 367.35730876 871.55684314 365.21875 869.7109375 C360.94416038 866.00064356 356.92703554 862.07525302 352.9375 858.0625 C352.26912109 857.39798828 351.60074219 856.73347656 350.91210938 856.04882812 C347.00148683 852.13060476 343.30170306 848.09437414 339.68579102 843.90405273 C337.08704417 840.9688425 334.30258618 838.23877578 331.5 835.5 C327.48022389 831.52507732 323.58828231 827.52480302 319.9296875 823.2109375 C317.23988652 820.12910075 314.42524443 817.1688033 311.625 814.1875 C306.92275996 809.16554769 302.47822995 804.01669297 298.17578125 798.64453125 C295.869683 795.84160752 293.45848469 793.16996725 291 790.5 C286.10493872 785.17368912 281.5382098 779.63059305 277 774 C275.5424923 772.22848705 274.08415078 770.45765983 272.625 768.6875 C267.84750257 762.84558604 263.18310545 756.91943292 258.54052734 750.97021484 C256.91330052 748.8891181 255.27911192 746.81360575 253.64453125 744.73828125 C246.03912718 735.05548499 238.7194617 725.20683261 231.56933594 715.18408203 C230.08577478 713.1193748 228.58296587 711.07079724 227.0703125 709.02734375 C216.21323667 694.30458547 206.21101559 678.99331296 196.14056396 663.7277832 C195.16525063 662.2503299 194.18759935 660.7744204 193.20947266 659.29882812 C172.68507119 628.31808539 154.36299282 595.83257343 137 563 C136.44183594 561.94683594 135.88367188 560.89367188 135.30859375 559.80859375 C115.64338557 522.62264325 98.25224665 484.20323985 83 445 C82.70929626 444.25314941 82.41859253 443.50629883 82.11907959 442.73681641 C48.44270886 356.02837967 24.86063737 266.16817692 3 99 C2.8872171 97.57877838 2.8872171 97.57877838 2.77215576 96.12884521 C2.29772108 90.08021274 1.85857408 84.02996757 1.45175171 77.97640991 C1.32367543 76.08692162 1.19108912 74.19772934 1.05239868 72.30899048 C-0.68793727 48.21760461 0 24.17985481 0 0 Z " fill="#FF0000" transform="translate(167,486)"/>
<path d="M0 0 C3.73699517 3.0506083 7.15026922 6.05109152 10.26977539 9.73413086 C13.88645967 13.9188845 17.70529423 17.85010547 21.62109375 21.75390625 C22.32468521 22.45845444 23.02827667 23.16300262 23.75318909 23.88890076 C25.23014648 25.36653367 26.70834742 26.84292457 28.18774414 28.31811523 C30.43165085 30.55666481 32.67016704 32.80050473 34.90820312 35.04492188 C36.35384618 36.48990404 37.79979945 37.93457592 39.24609375 39.37890625 C39.9046788 40.03951553 40.56326385 40.70012482 41.24180603 41.38075256 C45.66746525 45.78452837 50.2614345 49.93628685 55 54 C56.0941824 54.95002305 57.18800881 55.9004565 58.28125 56.8515625 C84.39603371 79.40341145 111.83971236 100.32413052 141.72119141 117.66796875 C143.85252153 118.91379446 145.96581268 120.18460941 148.07421875 121.46875 C194.72927501 149.7518373 245.90766026 168.96481936 299 181 C299.98484375 181.22816406 300.9696875 181.45632813 301.984375 181.69140625 C304.90397574 182.36723975 307.82629035 183.02969037 310.75 183.6875 C311.57467773 183.87787842 312.39935547 184.06825684 313.24902344 184.2644043 C393.66934706 201.93437383 485.32070577 195.97693941 563.06103516 169.01757812 C565.17706794 168.28492946 567.29704552 167.56363855 569.41943359 166.84960938 C607.14759403 154.15527536 642.9107735 137.59964158 677 117 C677.75748535 116.54383301 678.5149707 116.08766602 679.29541016 115.61767578 C703.49910291 100.97385051 726.41127683 84.25957106 748 66 C748.62777344 65.47132324 749.25554688 64.94264648 749.90234375 64.39794922 C757.5627445 57.93802882 765.05370805 51.32363475 772.39013672 44.49658203 C774.14289968 42.86715574 775.90149754 41.24415387 777.66015625 39.62109375 C788.22975432 29.84168289 798.67405847 19.99363931 808 9 C809.43084568 7.32761707 810.86847487 5.66101639 812.3125 4 C813.29669922 2.8553125 813.29669922 2.8553125 814.30078125 1.6875 C816 0 816 0 818 0 C820.268302 5.8685335 822.52769567 11.74044011 824.78100586 17.61474609 C825.54817589 19.61162312 826.31736203 21.60772683 827.08862305 23.60302734 C828.19854531 26.47551474 829.30112456 29.35072922 830.40234375 32.2265625 C830.74716293 33.11429352 831.09198212 34.00202454 831.44725037 34.91665649 C835.71494588 46.11596023 835.71494588 46.11596023 834.26245117 49.94360352 C833.86002197 50.49975342 833.45759277 51.05590332 833.04296875 51.62890625 C832.5948584 52.26481689 832.14674805 52.90072754 831.68505859 53.5559082 C831.19086426 54.2180835 830.69666992 54.88025879 830.1875 55.5625 C829.68557129 56.26141357 829.18364258 56.96032715 828.66650391 57.68041992 C827.1314812 59.80295918 825.57100313 61.90399199 824 64 C823.55060059 64.60392578 823.10120117 65.20785156 822.63818359 65.83007812 C806.40861767 87.55187249 788.3757262 107.69102477 769.25 126.875 C768.50633682 127.62268143 768.50633682 127.62268143 767.74765015 128.38546753 C762.01214278 134.14446405 756.1948713 139.73444419 750 145 C748.91668594 145.94905855 747.83460466 146.89952656 746.75390625 147.8515625 C738.51722208 155.03607339 729.99519825 161.76754384 721.24609375 168.31591797 C718.97981802 170.0151321 716.72429565 171.72798467 714.46875 173.44140625 C689.94507448 191.9358161 663.37860076 207.17098872 636 221 C634.70521729 221.65548828 634.70521729 221.65548828 633.38427734 222.32421875 C618.31786829 229.88796919 602.75527633 236.03129322 587 242 C585.99727051 242.38462402 584.99454102 242.76924805 583.96142578 243.16552734 C571.33821649 247.99742928 558.65814065 251.96709896 545.56835938 255.32958984 C543.19806122 255.94830075 540.84076068 256.60007978 538.484375 257.26953125 C517.7956705 263.07942002 496.19332107 267.14353894 474.85644531 269.66015625 C472.86461824 269.8971326 470.87444331 270.14823889 468.88574219 270.41015625 C449.31136024 272.93441579 429.78940402 273.29566266 410.07226562 273.31052017 C408.0978969 273.31246513 406.12353237 273.31774691 404.14916992 273.3230896 C381.44913924 273.35712884 358.94815115 272.18590876 336.4375 269.1875 C334.4879541 268.92876099 334.4879541 268.92876099 332.49902344 268.66479492 C276.23817737 261.02238097 222.60508377 242.32881659 172 217 C171.04399902 216.52594727 170.08799805 216.05189453 169.10302734 215.56347656 C135.98609926 199.0742696 105.28031335 177.78944814 77 154 C76.46842285 153.55333984 75.9368457 153.10667969 75.38916016 152.64648438 C62.23821737 141.56806122 49.79769077 129.88736771 37.625 117.75 C37.10262756 117.2303064 36.58025513 116.71061279 36.04205322 116.1751709 C30.14210551 110.29817477 24.38128653 104.36263263 19 98 C18.12309464 96.99027811 17.24553232 95.98112623 16.3671875 94.97265625 C5.68533177 82.49932941 -4.0962572 69.34587133 -13.7578125 56.07421875 C-15.82695959 53.12752471 -15.82695959 53.12752471 -17.70834351 51.09983826 C-19 49 -19 49 -18.76113892 46.74720764 C-18.47983124 45.94899094 -18.19852356 45.15077423 -17.90869141 44.32836914 C-17.45517303 43.00761887 -17.45517303 43.00761887 -16.99249268 41.66018677 C-16.66497009 40.78232513 -16.33744751 39.9044635 -16 39 C-15.71775574 38.2256662 -15.43551147 37.4513324 -15.14471436 36.65353394 C-14.27837135 34.33898554 -13.37598031 32.04179981 -12.4609375 29.74609375 C-12.13461334 28.91916519 -11.80828918 28.09223663 -11.47207642 27.24024963 C-10.78999295 25.51444915 -10.10592456 23.7894319 -9.41992188 22.06518555 C-8.36590242 19.41462213 -7.31924189 16.76123594 -6.2734375 14.10742188 C-5.60719837 12.42430987 -4.94054697 10.74136098 -4.2734375 9.05859375 C-3.95990326 8.26392197 -3.64636902 7.46925018 -3.32333374 6.65049744 C-1.11563144 1.11563144 -1.11563144 1.11563144 0 0 Z " fill="#FFFEFE" transform="translate(991,1116)"/>
<path d="M0 0 C22.28870315 4.3880481 42.75650597 3.39593287 64.88671875 -1.046875 C62.9185282 5.86940499 60.60736121 12.56939199 57.9921875 19.265625 C57.61266434 20.24708496 57.23314117 21.22854492 56.84211731 22.23974609 C56.02040263 24.36404536 55.19708179 26.48772391 54.37231445 28.61083984 C52.11222467 34.43002907 49.86509351 40.25422075 47.6171875 46.078125 C47.14683075 47.29604736 46.676474 48.51396973 46.19186401 49.76879883 C41.49798539 61.93532903 36.87438036 74.12820632 32.2600708 86.32510376 C30.8841505 89.95990961 29.5057724 93.59377319 28.12646484 97.22729492 C27.67086182 98.42751785 27.21525879 99.62774078 26.74584961 100.86433411 C25.82839114 103.28116171 24.91091075 105.697981 23.9934082 108.11479187 C21.24591563 115.35653273 18.5122762 122.60333395 15.78787231 129.85379028 C14.02129724 134.54715735 12.2436787 139.23629189 10.46362305 143.92456055 C9.63917171 146.10309241 8.81928633 148.28335935 8.00463867 150.46557617 C-7.29180585 191.41828598 -29.88452643 223.76266333 -70.12353516 242.90966797 C-85.25157825 249.79540909 -101.36929663 255.07286617 -117.67578125 258.265625 C-118.41602539 258.41281982 -119.15626953 258.56001465 -119.91894531 258.71166992 C-137.40969338 261.852873 -155.14156186 262.32662889 -172.86328125 262.265625 C-173.91100708 262.26446686 -174.95873291 262.26330872 -176.03820801 262.26211548 C-195.93564177 262.21867544 -214.80294536 261.04300978 -234.11328125 255.953125 C-235.16104633 252.77959222 -235.09441798 251.0964392 -233.84985352 248.01074219 C-233.54946671 247.25025574 -233.2490799 246.48976929 -232.93959045 245.70623779 C-232.43968849 244.49040009 -232.43968849 244.49040009 -231.9296875 243.25 C-231.59533188 242.41221008 -231.26097626 241.57442017 -230.91648865 240.71124268 C-229.84665504 238.03755488 -228.76146618 235.37041019 -227.67578125 232.703125 C-226.94754745 230.89103468 -226.22032141 229.07853902 -225.49414062 227.265625 C-223.7121785 222.82333777 -221.91642046 218.38685626 -220.11328125 213.953125 C-217.84074114 214.50309908 -215.66002574 215.10619813 -213.44140625 215.85546875 C-198.16678985 220.99223695 -182.64605807 221.36053989 -166.67578125 221.328125 C-165.75729401 221.32824585 -164.83880676 221.3283667 -163.89248657 221.32849121 C-144.62042666 221.29248158 -125.26527096 220.04082201 -107.11328125 212.953125 C-106.49195313 212.71223145 -105.870625 212.47133789 -105.23046875 212.22314453 C-81.14842196 202.73328391 -66.08828931 188.10405386 -55.11328125 164.953125 C-55.92667969 165.44941406 -56.74007813 165.94570313 -57.578125 166.45703125 C-80.94947463 180.44309035 -106.49243166 187.1415912 -133.69506836 187.13842773 C-135.77934571 187.14060263 -137.86308217 187.15878502 -139.94726562 187.17773438 C-159.06200384 187.25889739 -179.66965168 184.38857167 -194.359375 170.90234375 C-208.38223484 155.31791823 -212.30551729 138.29228759 -211.3515625 117.79248047 C-208.79043816 87.27416479 -188.83045461 56.54735787 -166.46484375 36.58984375 C-163.72401531 34.31629122 -160.93518693 32.1250193 -158.11328125 29.953125 C-156.72689453 28.84324219 -156.72689453 28.84324219 -155.3125 27.7109375 C-147.39179603 21.51585375 -139.00842485 16.58492857 -130.11328125 11.953125 C-129.49582031 11.63069824 -128.87835937 11.30827148 -128.2421875 10.97607422 C-117.95139374 5.68959387 -107.2827344 1.9288804 -96.11328125 -1.046875 C-95.32759766 -1.26005371 -94.54191406 -1.47323242 -93.73242188 -1.69287109 C-63.80535299 -9.41974126 -29.93113935 -5.92861958 0 0 Z " fill="#FFFDFD" transform="translate(1459.11328125,844.046875)"/>
<path d="M0 0 C0.66742218 0.00281982 1.33484436 0.00563965 2.02249146 0.00854492 C33.54418624 0.20675047 63.94944465 6.34415935 87.625 28.5 C98.47304808 39.63252487 103.28504402 53.37142878 103.31689453 68.67382812 C102.86468133 93.66279482 90.00886544 119.67885128 74 138.3125 C73.29786377 139.13210205 73.29786377 139.13210205 72.58154297 139.96826172 C44.2832519 172.59975817 3.1283644 190.44704971 -39.51855469 194.08544922 C-57.58587806 195.26375292 -76.32327219 195.61831526 -94 191.3125 C-94.68368652 191.14621094 -95.36737305 190.97992187 -96.07177734 190.80859375 C-110.1620739 187.21022055 -124.1285744 181.12164493 -135 171.3125 C-135.60972656 170.79429687 -136.21945312 170.27609375 -136.84765625 169.7421875 C-146.68760695 160.78891368 -152.22761263 147.86121753 -153.19091797 134.70507812 C-154.54842458 102.59807535 -144.08798691 74.90674939 -122.6875 51.125 C-108.60457203 36.00249317 -91.67754809 24.92743006 -73 16.3125 C-71.82566406 15.76722656 -70.65132812 15.22195313 -69.44140625 14.66015625 C-47.4247728 4.83888843 -24.09641846 -0.11063976 0 0 Z " fill="#FFFDFD" transform="translate(1018,838.6875)"/>
<path d="M0 0 C1.3753894 -0.01164688 1.3753894 -0.01164688 2.77856445 -0.02352905 C30.97765682 -0.21271877 66.13600444 2.70535405 88 22.65625 C95.69065847 30.6504871 100.54310474 39.95218598 100.8125 51.125 C100.46530803 68.57860348 92.73927367 84.80148687 86.43499756 100.78918457 C84.22875206 106.39207896 82.04536762 112.0039864 79.85546875 117.61328125 C79.38870728 118.8064093 78.9219458 119.99953735 78.44104004 121.2288208 C66.38524686 150.94330863 66.38524686 150.94330863 62.4375 182.4375 C62.44900819 184.03181711 62.46013198 185.62613702 62.47094727 187.22045898 C62.47643082 188.00460678 62.48191437 188.78875458 62.48756409 189.59666443 C62.49166794 190.18351517 62.49577179 190.77036591 62.5 191.375 C61.2305957 191.16496338 59.96119141 190.95492676 58.65332031 190.73852539 C45.79970061 188.70172318 33.25663728 187.78029862 20.25 187.8125 C19.2984201 187.81065704 18.34684021 187.80881409 17.36642456 187.80691528 C-0.64553967 187.818675 -18.01911286 189.9412772 -35.74609375 192.96484375 C-49.49591492 195.29945606 -63.18594564 195.58632175 -77.10375977 195.61523438 C-79.92949519 195.62497241 -82.75451109 195.65612388 -85.58007812 195.6875 C-107.33705267 195.8146711 -128.00557371 191.85355855 -144.75 176.8125 C-153.95350801 167.09768599 -158.02522717 153.97946878 -157.73828125 140.85546875 C-156.57824465 123.91132764 -149.77857433 109.08394975 -137.5 97.375 C-136.79101562 96.66988281 -136.08203125 95.96476563 -135.3515625 95.23828125 C-106.61631074 68.00722137 -58.23148552 66.17809406 -20.89453125 66.2421875 C-19.47206099 66.24151105 -18.04959084 66.24053821 -16.62712097 66.23928833 C-13.68361278 66.23783266 -10.74013541 66.23989959 -7.79663086 66.24462891 C-4.03323128 66.25038334 -0.26990215 66.24699807 3.49349499 66.24105644 C6.41460197 66.23744198 9.33569221 66.2385925 12.2567997 66.24118423 C13.64541953 66.24184806 15.0340409 66.24104424 16.42265892 66.23870468 C18.35493311 66.23615723 20.2872127 66.24073019 22.21948242 66.24560547 C23.86251595 66.24679886 23.86251595 66.24679886 25.53874207 66.24801636 C28.30427955 66.36660718 30.80917831 66.74692405 33.5 67.375 C34.04256477 58.48140943 34.04256477 58.48140943 32.25 49.875 C20.36706297 39.07232998 4.70633856 39.00716117 -10.5625 39.125 C-12.48993042 39.13406372 -12.48993042 39.13406372 -14.45629883 39.14331055 C-41.89917996 39.36950718 -68.00845294 42.62780851 -94.62475586 49.0378418 C-95.87393799 49.33859619 -97.12312012 49.63935059 -98.41015625 49.94921875 C-99.53558838 50.22338623 -100.66102051 50.49755371 -101.82055664 50.7800293 C-104.5 51.375 -104.5 51.375 -106.5 51.375 C-105.77699937 46.6725993 -104.11036661 42.48183437 -102.375 38.08203125 C-102.06804199 37.29479172 -101.76108398 36.50755219 -101.44482422 35.69645691 C-100.46705052 33.19195258 -99.48348808 30.68976506 -98.5 28.1875 C-97.8381859 26.49297745 -97.1767237 24.79831741 -96.515625 23.10351562 C-95.88573115 21.49206454 -95.25553335 19.88073222 -94.625 18.26953125 C-94.32706543 17.50808304 -94.02913086 16.74663483 -93.72216797 15.96211243 C-91.61870974 10.61241948 -91.61870974 10.61241948 -90.5 8.375 C-62.03103145 0.01105691 -29.44743922 0.1125771 0 0 Z " fill="#FFFDFD" transform="translate(1667.5,836.625)"/>
<path d="M0 0 C10.93654722 10.72307107 17.77840973 25.1435203 18.203125 40.52734375 C18.20836257 42.39322908 18.20303778 44.25917201 18.1875 46.125 C18.19523437 47.04990234 18.20296875 47.97480469 18.2109375 48.92773438 C18.18567779 57.93913426 16.29103489 66.22392059 13.9375 74.875 C13.6075 76.09574219 13.2775 77.31648437 12.9375 78.57421875 C11.95689919 82.11740528 10.94747847 85.65257535 9.9375 89.1875 C-40.2225 89.5175 -90.3825 89.8475 -142.0625 90.1875 C-143.78359584 103.95626675 -144.1450501 115.44350514 -135.78515625 127.08984375 C-127.4571612 137.23073568 -115.44052036 143.05229844 -102.43774414 144.47460938 C-99.78443645 144.58969625 -97.15546019 144.60321485 -94.5 144.5625 C-93.52401855 144.55379883 -92.54803711 144.54509766 -91.54248047 144.53613281 C-69.30130381 144.1067257 -47.88663341 140.51476648 -26.94140625 133.140625 C-24.0625 132.1875 -24.0625 132.1875 -22.0625 132.1875 C-23.46609564 135.80220008 -25.02678671 139.29870692 -26.70703125 142.79296875 C-27.21943359 143.85966797 -27.73183594 144.92636719 -28.25976562 146.02539062 C-29.05930664 147.68344727 -29.05930664 147.68344727 -29.875 149.375 C-30.39642578 150.46103516 -30.91785156 151.54707031 -31.45507812 152.66601562 C-32.49038781 154.81806385 -33.5338998 156.96618709 -34.5859375 159.11010742 C-35.5368879 161.09204026 -36.44687463 163.09442166 -37.3046875 165.1184082 C-40.19354012 171.69400405 -40.19354012 171.69400405 -44.3984375 174.08203125 C-45.73349921 174.43403892 -47.08207804 174.73707324 -48.4375 175 C-49.18773438 175.17756836 -49.93796875 175.35513672 -50.7109375 175.53808594 C-93.77970261 185.17808688 -143.76828492 190.83749005 -182.94433594 165.99414062 C-196.85190608 156.49076027 -206.62214781 144.17547378 -212.0625 128.1875 C-212.31620361 127.48665283 -212.56990723 126.78580566 -212.83129883 126.0637207 C-215.07200783 119.40790648 -215.49877438 113.36546456 -215.375 106.375 C-215.36227051 105.3132959 -215.34954102 104.2515918 -215.33642578 103.15771484 C-214.7629447 72.24187125 -201.09962314 45.33096507 -179.18945312 23.84594727 C-155.82470927 1.79564185 -127.15150048 -10.20993792 -96.0625 -16.8125 C-94.18111328 -17.2146875 -94.18111328 -17.2146875 -92.26171875 -17.625 C-62.18075521 -22.71508079 -24.08541244 -20.78151498 0 0 Z " fill="#FFFDFD" transform="translate(2139.0625,854.8125)"/>
<path d="M0 0 C1.41407639 0.00131424 1.41407639 0.00131424 2.85671997 0.00265503 C23.41401263 0.0655693 41.77840542 2.57469814 61.1484375 9.69140625 C62.17783447 10.06954468 62.17783447 10.06954468 63.22802734 10.45532227 C64.8125 11.375 64.8125 11.375 65.8125 14.375 C64.80382322 16.84245392 63.73579943 19.13184483 62.515625 21.4921875 C61.99147003 22.53344284 61.99147003 22.53344284 61.45672607 23.59573364 C60.33457811 25.81865264 59.1985364 28.03415235 58.0625 30.25 C57.31162848 31.7352368 56.5616181 33.22090929 55.8125 34.70703125 C49.91324012 46.36121611 49.91324012 46.36121611 46.8125 51.375 C41.83429271 50.37935854 37.05420778 49.14944215 32.21777344 47.59716797 C-5.58928269 35.67991812 -47.26633497 40.47441316 -82.34765625 58.47265625 C-91.31695245 63.24371706 -99.44350334 68.81067851 -107.1875 75.375 C-107.73535156 75.83777344 -108.28320312 76.30054688 -108.84765625 76.77734375 C-130.86863972 95.63057554 -147.85063372 123.31408844 -150.3828125 152.63671875 C-151.28951125 169.95466492 -148.37922483 185.3705068 -136.875 198.8125 C-122.65529183 213.48935615 -103.99951595 219.10708984 -83.94921875 219.578125 C-62.95204874 219.81408161 -45.28707596 217.42837953 -25.33203125 210.99609375 C-20.98436131 209.59629714 -16.63210195 208.4247826 -12.1875 207.375 C-14.67180737 215.50867537 -18.10717316 223.1496916 -21.625 230.875 C-22.48938016 232.78491929 -23.35255193 234.69536684 -24.21379089 236.60670471 C-25.04238388 238.43302152 -25.88785773 240.25164943 -26.73364258 242.07006836 C-28.20462757 245.24972498 -28.20462757 245.24972498 -29.0690918 248.18188477 C-29.86895869 250.65136462 -30.52650569 252.37716475 -32.1875 254.375 C-36.04534211 256.17676313 -39.92973751 256.73542634 -44.125 257.3125 C-45.3015918 257.50158936 -46.47818359 257.69067871 -47.69042969 257.88549805 C-51.18456526 258.4284672 -54.68233903 258.90929736 -58.1875 259.375 C-59.50548584 259.56980957 -59.50548584 259.56980957 -60.85009766 259.76855469 C-84.85410075 263.27271707 -112.50062489 263.9278069 -136.1875 258.375 C-137.82019914 258.03071199 -139.45301718 257.68698744 -141.0859375 257.34375 C-169.57893303 251.05997805 -198.67657652 236.65136875 -215 211.5625 C-227.74890844 191.11386662 -231.36417185 168.13575103 -226.9375 144.49609375 C-215.91650903 98.63269902 -184.56003953 64.14085484 -145.20092773 39.54785156 C-137.74628208 34.99987212 -130.09752742 31.06027084 -122.1875 27.375 C-121.42888672 27.0130957 -120.67027344 26.65119141 -119.88867188 26.27832031 C-82.4548136 8.44326111 -41.37761146 -0.09451217 0 0 Z " fill="#FFFDFD" transform="translate(855.1875,768.625)"/>
<path d="M0 0 C-0.70426 4.22205622 -2.0193343 8.04073059 -3.50390625 12.05078125 C-3.94806885 13.25645752 -4.39223145 14.46213379 -4.84985352 15.7043457 C-5.41502686 17.22503662 -5.9802002 18.74572754 -6.5625 20.3125 C-9.2540625 27.5828125 -9.2540625 27.5828125 -12 35 C2.85 35.33 17.7 35.66 33 36 C30.75220467 42.74338598 28.40732306 49.36772533 25.875 56 C25.51535156 56.95261719 25.15570312 57.90523437 24.78515625 58.88671875 C24.26888672 60.24216797 24.26888672 60.24216797 23.7421875 61.625 C23.4313623 62.44226563 23.12053711 63.25953125 22.80029297 64.1015625 C22 66 22 66 21 67 C19.55815707 67.12221525 18.11056856 67.17772758 16.66381836 67.20532227 C15.28249977 67.2352401 15.28249977 67.2352401 13.87327576 67.26576233 C12.87224319 67.28247482 11.87121063 67.29918732 10.83984375 67.31640625 C9.82024063 67.33718735 8.80063751 67.35796844 7.75013733 67.37937927 C4.47932952 67.44498852 1.20843863 67.50381234 -2.0625 67.5625 C-4.27409728 67.60567442 -6.48568603 67.64928834 -8.69726562 67.69335938 C-14.13142151 67.8006814 -19.56566082 67.90242623 -25 68 C-26.42847259 71.50387072 -27.8568352 75.00778626 -29.28515625 78.51171875 C-29.95739731 80.16084007 -29.95739731 80.16084007 -30.64321899 81.84327698 C-33.12436472 87.93053827 -35.60464193 94.01815108 -38.08325195 100.10644531 C-38.33339522 100.7208592 -38.58353849 101.33527309 -38.84126186 101.96830559 C-40.36081378 105.70069714 -40.36081378 105.70069714 -41.88027763 109.43312454 C-44.78223075 116.56141987 -47.68843136 123.68792981 -50.6053009 130.81013489 C-51.98651952 134.18397428 -53.36433747 137.55919537 -54.74142456 140.9347229 C-55.36520143 142.46125688 -55.9905923 143.98713249 -56.6177063 145.51229858 C-65.14804656 164.23597172 -65.14804656 164.23597172 -64.23828125 184.08984375 C-62.35655827 187.1318386 -60.27813258 188.74263408 -57 190 C-45.15977503 191.14534839 -32.26847753 189.65397825 -21.1875 185.25 C-18 184 -18 184 -15 185 C-16.90567148 189.6510723 -18.82656229 194.29544389 -20.76171875 198.93432617 C-21.4176173 200.51266307 -22.06935274 202.0927368 -22.71679688 203.67456055 C-23.64920412 205.95052086 -24.59649962 208.21977532 -25.546875 210.48828125 C-25.83246277 211.19463211 -26.11805054 211.90098297 -26.41229248 212.6287384 C-28.02518592 216.43335574 -29.27904221 219.05471234 -33 221 C-57.63120708 228.50462398 -92.88421095 231.04081121 -116.5625 220.3125 C-126.65256637 214.67922564 -131.30500347 207.98332178 -134.57421875 197.0859375 C-136.27678681 188.74491601 -135.22711184 180.64866827 -132.90625 172.58984375 C-132.57426102 171.42048027 -132.57426102 171.42048027 -132.23556519 170.22749329 C-129.76774058 161.81074575 -126.50805649 153.76951329 -123.125 145.6875 C-122.46750694 144.09476519 -121.81111999 142.50157338 -121.15576172 140.90795898 C-119.79551962 137.60258425 -118.4306117 134.29919501 -117.0625 130.99707031 C-114.02662659 123.65715117 -111.05612076 116.29077852 -108.08053589 108.92626953 C-106.52670414 105.08245772 -104.9687292 101.24032889 -103.41015625 97.3984375 C-103.1173024 96.67654236 -102.82444855 95.95464722 -102.52272034 95.21087646 C-98.70273727 85.7986665 -94.85399443 76.3983373 -91 67 C-100.9 67 -110.8 67 -121 67 C-118.91862906 60.06209685 -116.77190041 53.25749416 -114.375 46.4375 C-114.06304688 45.53708984 -113.75109375 44.63667969 -113.4296875 43.70898438 C-113.130625 42.85498047 -112.8315625 42.00097656 -112.5234375 41.12109375 C-112.25450684 40.3520874 -111.98557617 39.58308105 -111.70849609 38.79077148 C-111 37 -111 37 -110 36 C-107.71011219 35.84111908 -105.41556559 35.74861927 -103.12109375 35.68359375 C-102.4344313 35.66281265 -101.74776886 35.64203156 -101.04029846 35.62062073 C-98.83947065 35.55505857 -96.63852025 35.49620985 -94.4375 35.4375 C-92.94855486 35.39432108 -91.45962227 35.350707 -89.97070312 35.30664062 C-86.31393447 35.1993707 -82.65702682 35.09812228 -79 35 C-78.76812988 34.37955811 -78.53625977 33.75911621 -78.29736328 33.11987305 C-77.24384301 30.30758994 -76.18449257 27.49753826 -75.125 24.6875 C-74.76019531 23.71103516 -74.39539062 22.73457031 -74.01953125 21.72851562 C-73.66503906 20.79072266 -73.31054688 19.85292969 -72.9453125 18.88671875 C-72.62062988 18.02264404 -72.29594727 17.15856934 -71.96142578 16.26831055 C-71 14 -71 14 -69 11 C-66.38696289 10.19799805 -66.38696289 10.19799805 -62.91015625 9.57421875 C-62.26095718 9.45487473 -61.61175812 9.3355307 -60.94288635 9.21257019 C-58.63101007 8.79339682 -56.31593204 8.3961366 -54 8 C-52.12221904 7.67146691 -50.2444529 7.34284909 -48.36669922 7.01416016 C-43.14453898 6.10761913 -37.91835379 5.22687618 -32.69018555 4.35571289 C-29.41168487 3.80818876 -26.13456506 3.2528501 -22.85742188 2.69726562 C-20.75789196 2.34587907 -18.65828527 1.99495084 -16.55859375 1.64453125 C-15.58667587 1.47895218 -14.614758 1.31337311 -13.61338806 1.14277649 C-9.02290166 0.38543734 -4.67244201 -0.20522672 0 0 Z " fill="#FFFDFD" transform="translate(1916,801)"/>
<path d="M0 0 C21.78 0 43.56 0 66 0 C64.09351716 5.71944852 62.1607112 11.35598463 59.98828125 16.96875 C59.7033783 17.70946747 59.41847534 18.45018494 59.12493896 19.21334839 C58.18959897 21.64306302 57.25116806 24.07156935 56.3125 26.5 C55.64438045 28.23255787 54.97633178 29.96514307 54.30834961 31.69775391 C47.25840698 49.96911382 40.13013582 68.20992643 32.99743652 86.44909668 C30.05854671 93.96518779 27.12253199 101.48240169 24.1875 109 C23.86175995 109.83421478 23.5360199 110.66842957 23.20040894 111.52792358 C17.65230437 125.73890293 12.13540931 139.96186861 6.625 154.1875 C-2.20640745 176.98551245 -11.10205632 199.75801546 -20.02752686 222.51934814 C-21.2525167 225.64413709 -22.47629449 228.76939984 -23.69998169 231.8946991 C-24.9866095 235.1801439 -26.2745777 238.46506242 -27.5625 241.75 C-28.00980469 242.89251221 -28.45710938 244.03502441 -28.91796875 245.2121582 C-29.31757812 246.23011475 -29.7171875 247.24807129 -30.12890625 248.296875 C-30.46994385 249.16666992 -30.81098145 250.03646484 -31.16235352 250.93261719 C-32 253 -32 253 -33 255 C-54.78 255 -76.56 255 -99 255 C-95.62459199 244.87377596 -95.62459199 244.87377596 -93.92553711 240.47583008 C-93.54269562 239.48198807 -93.15985413 238.48814606 -92.76541138 237.46418762 C-92.35684906 236.40995102 -91.94828674 235.35571442 -91.52734375 234.26953125 C-90.8748616 232.57898872 -90.8748616 232.57898872 -90.209198 230.85429382 C-89.03221729 227.80657367 -87.85331421 224.75960679 -86.67334366 221.71304321 C-85.93177333 219.7977091 -85.19101426 217.88206322 -84.45053101 215.96630859 C-77.22114186 197.26283597 -69.942019 178.57912687 -62.62084961 159.91137695 C-57.21339647 146.1206159 -51.84860851 132.3136809 -46.5 118.5 C-38.52157576 97.89764376 -30.48844657 77.31715875 -22.42637634 56.74740601 C-19.58172469 49.48835049 -16.74319992 42.22691223 -13.90625 34.96484375 C-12.65509698 31.76319163 -11.40386903 28.56156881 -10.15261841 25.35995483 C-9.34719683 23.2985716 -8.5420785 21.23706985 -7.73727417 19.17544556 C-6.62648149 16.33017206 -5.5145413 13.48534957 -4.40234375 10.640625 C-4.07097412 9.79092636 -3.73960449 8.94122772 -3.39819336 8.06578064 C-3.09526367 7.29158279 -2.79233398 6.51738495 -2.48022461 5.71972656 C-2.21696884 5.04572815 -1.95371307 4.37172974 -1.68247986 3.67730713 C-1 2 -1 2 0 0 Z " fill="#FFFDFD" transform="translate(1213,774)"/>
<path d="M0 0 C5.72507028 4.67266765 9.47140383 10.00646213 10.5625 17.421875 C12.68851965 47.61356478 1.35052348 77.94129254 -18.15625 100.921875 C-30.14424567 114.0594045 -46.22973562 123.59567063 -64.19921875 124.640625 C-77.00309576 125.04670664 -89.37473558 123.30082084 -99.40625 114.7421875 C-106.53889824 107.45842384 -108.6321237 98.71328441 -108.9375 88.734375 C-108.6127284 64.34724647 -96.71722134 39.17426851 -80.4375 21.421875 C-79.57125 20.47441406 -78.705 19.52695312 -77.8125 18.55078125 C-71.90470961 12.36606318 -65.89692215 7.58908884 -58.4375 3.421875 C-57.66148437 2.96167969 -56.88546875 2.50148438 -56.0859375 2.02734375 C-40.11229375 -6.81425505 -16.05484758 -10.39448465 0 0 Z " fill="#FF0101" transform="translate(1041.4375,876.578125)"/>
<path d="M0 0 C0.62261719 0.41507813 1.24523438 0.83015625 1.88671875 1.2578125 C3 3 3 3 2.69921875 6.0546875 C-6.93894117 42.44897478 -24.66139334 83.18530967 -58.515625 103.12890625 C-72.06540796 110.40507894 -87.35526647 114.46069388 -102.75 111.46484375 C-110.41887738 109.09422794 -116.15597574 105.10190297 -120 98 C-126.52851807 82.93218029 -122.13742977 66.64790375 -116.54003906 51.97509766 C-106.17436061 26.18593987 -86.19325405 6.11978655 -60.80078125 -4.88671875 C-41.80623572 -12.43685191 -17.10551881 -11.44341328 0 0 Z " fill="#FF0101" transform="translate(1439,884)"/>
<path d="M0 0 C1.14145981 0.00141495 2.28291962 0.0028299 3.45896912 0.00428772 C7.07553824 0.00984874 10.69204359 0.02239394 14.30859375 0.03515625 C16.77278556 0.04017629 19.23697835 0.04473831 21.70117188 0.04882812 C27.71616729 0.05980538 33.73112596 0.07650431 39.74609375 0.09765625 C39.55980408 0.65330765 39.3735144 1.20895905 39.18157959 1.78144836 C37.91692835 5.56298543 36.66100478 9.34610995 35.45019531 13.14526367 C34.2873752 16.7753552 33.05166637 20.37670408 31.78955078 23.97338867 C31.26114587 25.51291671 30.75352432 27.05973745 30.26708984 28.61303711 C26.00724864 42.13396164 26.00724864 42.13396164 20.39990234 45.3840332 C16.64346627 47.12246414 12.7677451 48.16882734 8.74609375 49.09765625 C7.62138672 49.38874268 6.49667969 49.6798291 5.33789062 49.97973633 C2.19321851 50.72690698 -0.94767422 51.34065177 -4.12890625 51.91015625 C-5.17820312 52.11318359 -6.2275 52.31621094 -7.30859375 52.52539062 C-16.9816214 54.35722024 -26.34789893 55.29300805 -36.19140625 55.34765625 C-37.11630859 55.36828125 -38.04121094 55.38890625 -38.99414062 55.41015625 C-47.9150012 55.46016808 -56.19032274 53.84708469 -63.25390625 48.09765625 C-68.52621523 42.52448181 -69.68087483 38.93703296 -69.58984375 31.3359375 C-68.86480882 24.34693804 -65.63034128 19.05121274 -60.56640625 14.28515625 C-52.33921524 7.90121019 -43.84360144 5.1734584 -33.69140625 3.34765625 C-32.61955078 3.14011719 -31.54769531 2.93257812 -30.44335938 2.71875 C-20.20137898 0.77684546 -10.42550032 -0.04932147 0 0 Z " fill="#FF0101" transform="translate(1647.25390625,937.90234375)"/>
<path d="M0 0 C4.99545772 4.29841711 7.72926271 8.3138614 8.3984375 14.953125 C8.40632167 16.38541627 8.39822364 17.81787531 8.375 19.25 C8.38660156 19.94996094 8.39820312 20.64992188 8.41015625 21.37109375 C8.37562572 27.69018059 6.94725307 31.50915644 5 38 C-23.38 38 -51.76 38 -81 38 C-75.62546909 21.87640728 -66.19861897 9.63491768 -51.0546875 1.43359375 C-35.62784014 -5.8063717 -15.32239783 -9.1934387 0 0 Z " fill="#FF0404" transform="translate(2088,874)"/>
<path d="M0 0 C0.70036377 0.00684814 1.40072754 0.01369629 2.12231445 0.02075195 C9.45769325 0.24756679 14.32309726 2.08135452 19.875 6.75 C27.25845342 15.56912492 29.05798835 21.69207135 28.125 33.4375 C25.89398354 41.56394856 21.34014106 47.16041235 14.1171875 51.3671875 C7.68453878 54.82315956 1.32220131 55.41972675 -5.875 54.4375 C-15.53057378 51.1606688 -21.62113345 46.14196253 -26.25 37.1875 C-28.82258806 30.74512904 -29.06980573 24.84881813 -26.76953125 18.28125 C-22.87194014 9.83821082 -18.44722402 4.62197521 -9.79956055 1.05053711 C-6.56887301 0.02145473 -3.35454016 -0.0505141 0 0 Z " fill="#FF0909" transform="translate(2183.875,800.5625)"/>
<path d="M0 0 C0.70036377 0.00684814 1.40072754 0.01369629 2.12231445 0.02075195 C9.45769325 0.24756679 14.32309726 2.08135452 19.875 6.75 C27.25845342 15.56912492 29.05798835 21.69207135 28.125 33.4375 C25.89398354 41.56394856 21.34014106 47.16041235 14.1171875 51.3671875 C7.68453878 54.82315956 1.32220131 55.41972675 -5.875 54.4375 C-15.53057378 51.1606688 -21.62113345 46.14196253 -26.25 37.1875 C-28.82258806 30.74512904 -29.06980573 24.84881813 -26.76953125 18.28125 C-22.87194014 9.83821082 -18.44722402 4.62197521 -9.79956055 1.05053711 C-6.56887301 0.02145473 -3.35454016 -0.0505141 0 0 Z M-16.875 16.4375 C-19.90207036 21.42577088 -19.44860007 26.78862838 -18.875 32.4375 C-17.15041517 38.65426686 -13.16568986 42.88991446 -7.875 46.4375 C-2.14655171 48.34698276 3.90062505 48.34935715 9.4375 45.8125 C14.23128358 43.0621272 17.08366171 39.66893919 19.4375 34.625 C21.25672851 26.19039507 20.0738604 20.13383323 15.4375 12.75 C11.21924724 8.53174724 6.62895907 6.23821643 0.625 5.9375 C-7.29623054 6.34721882 -12.41381078 10.13935052 -16.875 16.4375 Z " fill="#FFF6F6" transform="translate(2183.875,800.5625)"/>
<path d="M0 0 C3.0525 -0.04125 6.105 -0.0825 9.25 -0.125 C10.20551758 -0.14320801 11.16103516 -0.16141602 12.14550781 -0.18017578 C13.28777832 -0.18766846 13.28777832 -0.18766846 14.453125 -0.1953125 C15.22817383 -0.20578613 16.00322266 -0.21625977 16.80175781 -0.22705078 C19.33774421 0.03488473 20.88914718 0.56933668 23 2 C23.9375 5.4375 23.9375 5.4375 24 9 C22.6875 10.9375 22.6875 10.9375 21 12 C20.34 12 19.68 12 19 12 C19 12.66 19 13.32 19 14 C19.63421875 14.22429688 20.2684375 14.44859375 20.921875 14.6796875 C23 16 23 16 23.828125 18.3828125 C23.96734375 19.28773438 24.1065625 20.19265625 24.25 21.125 C24.39953125 22.03507813 24.5490625 22.94515625 24.703125 23.8828125 C24.80109375 24.58148437 24.8990625 25.28015625 25 26 C22.03 26 19.06 26 16 26 C15.608125 24.72125 15.21625 23.4425 14.8125 22.125 C13.51778857 18.57510593 13.51778857 18.57510593 10.3125 16.5 C9.549375 16.335 8.78625 16.17 8 16 C8 19.3 8 22.6 8 26 C5.36 26 2.72 26 0 26 C0 17.42 0 8.84 0 0 Z " fill="#FFF5F5" transform="translate(2173,815)"/>
<path d="M0 0 C2.31 0.33 4.62 0.66 7 1 C7 2.32 7 3.64 7 5 C4.69 5.33 2.38 5.66 0 6 C0 4.02 0 2.04 0 0 Z " fill="#FF1515" transform="translate(2181,820)"/>
</svg>
